<?xml version="1.0" encoding="UTF-8"?>
<svg width="28px" height="28px" viewBox="0 0 28 28" version="1.1" xmlns="http://www.w3.org/2000/svg" xmlns:xlink="http://www.w3.org/1999/xlink">
    <!-- Generator: sketchtool 50.2 (55047) - http://www.bohemiancoding.com/sketch -->
    <title>5B7D799B-5D50-4026-BDFF-154DCA83B68F@2x</title>
    <desc>Created with sketchtool.</desc>
    <defs></defs>
    <g id="Page-1" stroke="none" stroke-width="1" fill="none" fill-rule="evenodd">
        <g id="!!!main_concept_fin_actual" transform="translate(-343.000000, -5359.000000)" fill="#4A7296" fill-rule="nonzero">
            <g id="Group-20" transform="translate(259.000000, 5358.820312)">
                <path d="M91.7400602,0.927767479 L104.476737,0.927767479 C108.233678,0.927767479 111.279281,3.9733699 111.279281,7.73031087 L111.279281,20.4669879 C111.279281,24.2239288 108.233678,27.2695313 104.476737,27.2695313 L91.7400602,27.2695313 C87.9831193,27.2695313 84.9375168,24.2239288 84.9375168,20.4669879 L84.9375168,7.73031087 C84.9375168,3.9733699 87.9831193,0.927767479 91.7400602,0.927767479 Z M101.969527,26.8878655 L101.969527,17.4794819 L105.24402,17.4794819 L105.734438,13.8122752 L101.969527,13.8122752 L101.969527,11.4712307 C101.969527,10.410301 102.274814,9.68735841 103.853762,9.68735841 L105.867055,9.68551652 L105.867055,6.40694902 C105.518156,6.36182267 104.323709,6.26236051 102.933451,6.26236051 C100.030999,6.26236051 98.0435175,7.9707152 98.0435175,11.1092989 L98.0435175,13.8122752 L94.761014,13.8122752 L94.761014,17.4794819 L98.0435175,17.4794819 L98.0435175,26.8878655 L101.969527,26.8878655 Z" id="Combined-Shape-Copy-5"></path>
            </g>
        </g>
    </g>
</svg>