<?xml version="1.0" encoding="UTF-8"?>
<svg width="28px" height="28px" viewBox="0 0 28 28" version="1.1" xmlns="http://www.w3.org/2000/svg" xmlns:xlink="http://www.w3.org/1999/xlink">
    <!-- Generator: sketchtool 50.2 (55047) - http://www.bohemiancoding.com/sketch -->
    <title>3C218A25-841B-4A53-BF8A-51391D8B5011@2x</title>
    <desc>Created with sketchtool.</desc>
    <defs></defs>
    <g id="Page-1" stroke="none" stroke-width="1" fill="none" fill-rule="evenodd">
        <g id="!!!main_concept_fin_actual" transform="translate(-300.000000, -5359.000000)" fill="#F8CA6C" fill-rule="nonzero">
            <g id="Group-20" transform="translate(259.000000, 5358.820312)">
                <path d="M48.6967436,0.927767479 L61.4334206,0.927767479 C65.1903616,0.927767479 68.235964,3.9733699 68.235964,7.73031087 L68.235964,20.4669879 C68.235964,24.2239288 65.1903616,27.2695313 61.4334206,27.2695313 L48.6967436,27.2695313 C44.9398026,27.2695313 41.8942002,24.2239288 41.8942002,20.4669879 L41.8942002,7.73031087 C41.8942002,3.9733699 44.9398026,0.927767479 48.6967436,0.927767479 Z M55.0650821,20.8838246 C58.8124309,20.8838246 61.8502573,17.8459981 61.8502573,14.0986494 C61.8502573,10.3513006 58.8124309,7.31347417 55.0650821,7.31347417 C51.3177333,7.31347417 48.2799069,10.3513006 48.2799069,14.0986494 C48.2799069,17.8459981 51.3177333,20.8838246 55.0650821,20.8838246 Z M62.5970102,8.74361464 C63.5386874,8.74361464 64.3020676,7.98023444 64.3020676,7.03855724 C64.3020676,6.09688004 63.5386874,5.33349984 62.5970102,5.33349984 C61.655333,5.33349984 60.8919528,6.09688004 60.8919528,7.03855724 C60.8919528,7.98023444 61.655333,8.74361464 62.5970102,8.74361464 Z" id="Combined-Shape-Copy-3"></path>
            </g>
        </g>
    </g>
</svg>