<?xml version="1.0" encoding="UTF-8"?>
<svg width="27px" height="28px" viewBox="0 0 27 28" version="1.1" xmlns="http://www.w3.org/2000/svg" xmlns:xlink="http://www.w3.org/1999/xlink">
    <!-- Generator: sketchtool 50.2 (55047) - http://www.bohemiancoding.com/sketch -->
    <title>B230B607-AACF-45B0-9D33-767C02F3960E@2x</title>
    <desc>Created with sketchtool.</desc>
    <defs></defs>
    <g id="Page-1" stroke="none" stroke-width="1" fill="none" fill-rule="evenodd">
        <g id="!!!main_concept_fin_actual" transform="translate(-259.000000, -5359.000000)" fill="#68B5C6">
            <g id="Group-20" transform="translate(259.000000, 5358.820312)">
                <path d="M7.30254339,0.927767479 L20.0392204,0.927767479 C23.7961614,0.927767479 26.8417638,3.9733699 26.8417638,7.73031087 L26.8417638,20.4669879 C26.8417638,24.2239288 23.7961614,27.2695313 20.0392204,27.2695313 L7.30254339,27.2695313 C3.54560242,27.2695313 0.5,24.2239288 0.5,20.4669879 L0.5,7.73031087 C0.5,3.9733699 3.54560242,0.927767479 7.30254339,0.927767479 Z M8.19848809,6.58478688 C7.18524592,6.58478688 6.36634222,7.40668409 6.36634222,8.41896833 C6.36634222,9.43065387 7.18524592,10.2503958 8.19848809,10.2503958 C9.20873675,10.2503958 10.0300353,9.43065387 10.0300353,8.41896833 C10.0300353,7.40668409 9.20873675,6.58478688 8.19848809,6.58478688 Z M6.61719808,21.8115583 L9.77882017,21.8115583 L9.77882017,11.6407 L6.61719808,11.6407 L6.61719808,21.8115583 Z M11.7613478,11.6406641 L11.7613478,21.8115224 L14.9214133,21.8115224 L14.9214133,16.7809942 C14.9214133,15.4545115 15.1725087,14.168022 16.8171413,14.168022 C18.4399811,14.168022 18.460337,15.6860891 18.460337,16.8655308 L18.460337,21.8115224 L21.6204025,21.8115224 L21.6204025,16.2331824 C21.6204025,13.4952014 21.0292447,11.389449 17.8279886,11.389449 C16.2904038,11.389449 15.2590809,12.2317021 14.8373556,13.0320461 L14.7940097,13.0320461 L14.7940097,11.6406641 L11.7613478,11.6406641 Z" id="Path"></path>
            </g>
        </g>
    </g>
</svg>