<?xml version="1.0" encoding="UTF-8"?>
<svg width="61px" height="93px" viewBox="0 0 61 93" version="1.1" xmlns="http://www.w3.org/2000/svg" xmlns:xlink="http://www.w3.org/1999/xlink">
    <!-- Generator: sketchtool 50.2 (55047) - http://www.bohemiancoding.com/sketch -->
    <title>72ACFBE7-DDC0-4FB5-8CEB-A08EE21C2275@2x</title>
    <desc>Created with sketchtool.</desc>
    <defs></defs>
    <g id="Page-1" stroke="none" stroke-width="1" fill="none" fill-rule="evenodd">
        <g id="!!!main_concept_fin_actual" transform="translate(-258.000000, -48.000000)">
            <g id="logo" transform="translate(258.945312, 48.609375)">
                <path d="M55.6620748,70.7046101 C54.1871169,70.7046101 53.0066417,72.0027512 53.0066417,73.4490877 L53.0066417,75.5740701 C53.0066417,75.5740701 52.9188693,76.9618917 53.951149,78.8509063 L56.4876441,83.6020644 C56.4876441,83.6020644 57.4016219,85.1959603 57.4016219,86.4063289 L57.4016219,88.7666432 C57.4016219,89.4166678 56.9004288,89.9184969 56.2815698,89.9184969 C55.6620748,89.9184969 55.1602456,89.4166678 55.1602456,88.7965367 L55.1602456,85.1959603 C54.629159,85.4319281 53.7736961,85.8160914 53.5968793,85.8752423 C53.331018,86.0228017 53.0066417,86.347178 53.0066417,87.025824 L53.0066417,89.1514425 C53.0365352,90.5678855 54.1572234,91.7191031 55.5730303,91.7776181 L56.9004288,91.7776181 C58.3760228,91.7776181 59.5558619,90.5971429 59.5558619,89.1514425 L59.5558619,86.5239948 C59.5558619,86.5239948 59.6442703,85.1368093 58.6119906,83.2484307 L56.0742234,78.4667431 C56.0742234,78.4667431 55.1602456,76.9021047 55.1602456,75.6923721 L55.1602456,73.7143129 C55.1602456,73.0655604 55.6620748,72.5637313 56.2815698,72.5637313 C56.9004288,72.5637313 57.4016219,73.0655604 57.4016219,73.7143129 L57.4016219,76.1057928 C57.962602,75.8691889 58.7888074,75.4862977 58.9656243,75.3972533 C59.2308496,75.2496939 59.5558619,74.9253176 59.5558619,74.2460356 L59.5558619,73.4490877 C59.5558619,72.0326447 58.4046442,70.7338676 56.9894733,70.7046101 L55.6620748,70.7046101 Z M20.7795428,70.7046101 C19.3338424,70.7046101 18.1540033,71.8844493 18.1540033,73.3314218 L18.1540033,89.1514425 C18.1540033,90.5971429 19.3338424,91.7776181 20.7795428,91.7776181 L22.0770479,91.7776181 C23.4934908,91.7191031 24.6434365,90.5678855 24.6434365,89.1514425 L24.6434365,81.6246413 C24.6434365,80.8276934 24.2599092,80.4740597 23.6111567,80.4740597 L20.9563597,80.4740597 L21.6642632,81.9496536 C21.6642632,81.9496536 21.959382,82.6282996 22.4313176,82.6282996 L22.519726,82.6282996 L22.519726,88.7965367 C22.519726,89.4166678 22.0185329,89.9184969 21.3984019,89.9184969 C20.7795428,89.9184969 20.2777137,89.4166678 20.2777137,88.7965367 L20.2777137,73.6856915 C20.2777137,73.0655604 20.7795428,72.5637313 21.3984019,72.5637313 C22.0185329,72.5637313 22.519726,73.0655604 22.519726,73.6856915 L22.519726,78.4075921 C23.0807061,78.1716243 23.9062755,77.7880971 24.0538349,77.6996886 C24.3489537,77.5521293 24.6434365,77.2570105 24.6434365,76.548471 L24.6434365,73.3314218 C24.6434365,71.9137067 23.4934908,70.7637611 22.0770479,70.7046101 L20.7795428,70.7046101 Z M35.8248767,70.9113205 L35.8248767,91.5715438 L37.9479511,91.5715438 L37.9479511,82.9927459 L39.0692753,82.9927459 C39.6302554,82.9927459 40.161342,83.0118268 40.161342,84.0154851 L40.161342,91.5715438 L42.2850525,91.5715438 L42.2850525,83.9677827 C42.2850525,83.9677827 42.2850525,81.756936 40.161342,81.756936 C42.2850525,81.756936 42.2850525,79.8838221 42.2850525,79.8838221 L42.2850525,73.5082386 C42.2850525,72.0625382 41.1052133,70.9113205 39.6894064,70.9113205 L35.8248767,70.9113205 Z M37.9479511,72.8887436 L39.0692753,72.8887436 C39.6302554,72.8887436 40.161342,73.1832263 40.161342,73.9509168 L40.161342,79.1937275 C40.161342,80.1382348 39.6302554,80.3742027 39.0692753,80.3742027 L37.9479511,80.3742027 L37.9479511,72.8887436 Z M4.9671545,70.9113205 L4.9671545,82.8051165 L2.78429312,72.0625382 C2.66599119,71.4716646 2.45928083,70.9113205 1.28007774,70.9113205 L0.306312949,70.9113205 L0.306312949,91.5715438 L2.43002337,91.5715438 L2.43002337,80.0313815 L4.70129318,90.2435092 C4.79033764,90.6556579 4.9671545,91.5715438 6.11773615,91.5715438 L7.09150095,91.5715438 L7.09150095,70.9113205 L4.9671545,70.9113205 Z" id="Fill-1" fill="#4A4B4C"></path>
                <path d="M18.2315356,-0.000190809561 C17.5522535,0.70008028 16.9066812,1.43215296 16.2967266,2.19475518 C14.6939263,4.20016367 13.3417225,6.41164648 12.2852736,8.78468139 C13.5916831,8.6212212 14.9203536,8.52645245 16.2719214,8.52645245 C24.2795626,8.52645245 31.5875688,11.5005375 37.1630242,16.3922586 C37.996862,15.8847052 38.9725349,15.5864062 40.0200794,15.5864062 C43.0552235,15.5864062 45.5153947,18.0421253 45.5153947,21.0715451 C45.5153947,22.5401427 44.9340616,23.8713574 43.9920984,24.8559347 C46.5031522,29.3851177 47.9367681,34.5923106 47.9367681,40.1346923 C47.9367681,43.860567 47.2854714,47.4344301 46.099272,50.7538804 C50.1406185,49.9340353 53.8881183,48.3089739 57.1719508,46.0580571 C57.9301008,45.5390551 58.6647176,44.9882515 59.370713,44.4037382 L59.370713,-0.000190809561 L18.2315356,-0.000190809561 Z" id="Fill-5" fill="#F8CA6C"></path>
                <path d="M0,-0.000190809561 L0,13.0174735 C0.714899823,12.5900601 1.4488806,12.1912681 2.19876218,11.8191894 C4.85801143,10.5000593 7.72842326,9.54664757 10.7463945,9.01619699 C11.7564131,6.57383461 13.0609145,4.28411987 14.6217367,2.19475518 C15.1890771,1.43533312 15.7933074,0.703896471 16.4255231,-0.000190809561 L0,-0.000190809561 Z" id="Fill-6" fill="#69B2BB"></path>
                <path d="M2.19876218,13.2992992 C1.44633647,13.693639 0.713627759,14.1191443 0,14.571999 L0,59.2653225 L39.7958781,59.2653225 C40.3740311,58.5586911 40.9222906,57.8272545 41.4349323,57.0703765 C42.4245979,55.6075032 43.2826048,54.0504972 44.0070451,52.4216196 C42.7006357,52.5857158 41.3719651,52.6804846 40.0203974,52.6804846 C22.5327011,52.6804846 8.35618672,38.5287754 8.35618672,21.0716087 C8.35618672,17.345734 9.00684732,13.7725069 10.1930468,10.4524206 C7.36461303,11.0267573 4.6818306,11.998614 2.19876218,13.2992992" id="Fill-7" fill="#5A85AD"></path>
                <path d="M11.7026048,10.1862412 C10.3981034,13.5654786 9.6749352,17.2334744 9.6749352,21.0719267 C9.6749352,37.800837 23.261212,51.3635806 40.0200158,51.3635806 C41.5738416,51.3635806 43.099046,51.2452786 44.5899048,51.0207594 C45.8944061,47.640886 46.6169383,43.9728902 46.6169383,40.1344379 C46.6169383,34.9094361 45.2920839,29.9929097 42.957847,25.7022387 C42.1074724,26.2409577 41.102542,26.5570655 40.0200158,26.5570655 C36.9848717,26.5570655 34.5253364,24.1013465 34.5253364,21.0719267 C34.5253364,19.5715275 35.1302027,18.2129634 36.1084198,17.2226618 C30.7880132,12.6292396 23.8578099,9.84342004 16.2718578,9.84342004 C14.7186679,9.84342004 13.1928275,9.96108594 11.7026048,10.1862412" id="Fill-8" fill="#97C06E"></path>
                <path d="M57.1720144,47.6350981 C53.7030966,49.8726583 49.7692395,51.4481092 45.5459879,52.1903584 C44.8387204,53.89874 43.9851656,55.5288897 43.0024964,57.0699949 C42.5222923,57.8230567 42.0141029,58.5570374 41.4734758,59.2649409 L59.3707766,59.2649409 L59.3707766,46.0831804 C58.660965,46.6308038 57.9276203,47.1478977 57.1720144,47.6350981" id="Fill-9" fill="#69B2BB"></path>
            </g>
        </g>
    </g>
</svg>