<?xml version="1.0" encoding="UTF-8"?>
<svg width="121px" height="181px" viewBox="0 0 121 181" version="1.1" xmlns="http://www.w3.org/2000/svg" xmlns:xlink="http://www.w3.org/1999/xlink">
    <!-- Generator: sketchtool 50.2 (55047) - http://www.bohemiancoding.com/sketch -->
    <title>382B05BC-8370-42C1-A547-3126ADDE9E24</title>
    <desc>Created with sketchtool.</desc>
    <defs></defs>
    <g id="Page-1" stroke="none" stroke-width="1" fill="none" fill-rule="evenodd">
        <g id="!!!main_concept_fin_actual" transform="translate(-899.000000, -5646.000000)" fill="#FFFFFF">
            <g id="Bitmap-Copy" transform="translate(0.000000, 5567.316406)">
                <g id="Group-16" transform="translate(899.500000, 78.892578)">
                    <path d="M36.9086155,0 C35.533499,1.41760603 34.2266233,2.89959017 32.9918511,4.4433773 C29.7471943,8.50306105 27.0098369,12.979915 24.8699085,17.7838097 C27.5158489,17.4529062 30.2055664,17.2610594 32.9403486,17.2610594 C49.1520448,17.2610594 63.946135,23.2817005 75.2341932,33.1843417 C76.9196122,32.156867 78.8947327,31.5530003 81.0166352,31.5530003 C87.1608823,31.5530003 92.1398854,36.5242781 92.1398854,42.6569371 C92.1398854,45.6299183 90.9630536,48.3247861 89.0574614,50.3179325 C94.1407572,59.4866632 97.0416349,70.0279353 97.0416349,81.2477526 C97.0416349,88.7902923 95.7244587,96.0251045 93.3218676,102.744892 C101.504326,101.085224 109.090642,97.7955026 115.738326,93.2388198 C117.271813,92.188169 118.758947,91.0731401 120.189429,89.8898704 L120.189429,0 L36.9086155,0 Z" id="Fill-1"></path>
                    <path d="M0.000643781119,0 L0.000643781119,26.3525364 C1.44786374,25.4872946 2.93371057,24.6799931 4.45303402,23.9267692 C9.83504419,21.2563651 15.6471002,19.3263093 21.7552954,18.2524824 C23.7999443,13.3082433 26.442022,8.67301927 29.6016997,4.4433773 C30.7502053,2.90602798 31.9721018,1.4253314 33.2519387,0 L0.000643781119,0 Z" id="Fill-3"></path>
                    <path d="M4.45239024,26.9230553 C2.9292041,27.7213438 1.4459324,28.582723 0,29.4994673 L0,119.975179 L80.5627695,119.975179 C81.7318761,118.544697 82.8430423,117.064 83.8808174,115.531801 C85.8842643,112.570408 87.6198982,109.418456 89.0890067,106.121009 C86.4417787,106.4532 83.7533488,106.645047 81.0159914,106.645047 C45.6144676,106.645047 16.9159927,77.9967867 16.9159927,42.6570659 C16.9159927,35.1145262 18.2331689,27.8810016 20.6357601,21.1599267 C14.9086832,22.3225954 9.47903323,24.2899905 4.45239024,26.9230553" id="Fill-6"></path>
                    <path d="M23.6916603,20.6210819 C21.0495826,27.4619001 19.5869119,34.8872715 19.5869119,42.6577096 C19.5869119,76.5231718 47.0905289,103.979149 81.0165065,103.979149 C84.1607335,103.979149 87.2495953,103.739662 90.2676412,103.285153 C92.9071438,96.4430472 94.3711021,89.0176758 94.3711021,81.2472376 C94.3711021,70.6699138 91.6878223,60.7170577 86.9624689,52.0311628 C85.2422858,53.121728 83.2066498,53.7616464 81.0165065,53.7616464 C74.8722594,53.7616464 69.8919687,48.7903686 69.8919687,42.6577096 C69.8919687,39.6203503 71.1164404,36.8701174 73.0979987,34.8653829 C62.3275405,25.5666084 48.2982623,19.9270858 32.9415074,19.9270858 C29.7972804,19.9270858 26.7084186,20.1652848 23.6916603,20.6210819" id="Fill-9"></path>
                    <path d="M115.737811,96.4313304 C108.715447,100.960974 100.751874,104.150266 92.202461,105.652851 C90.7706918,109.111243 89.0427832,112.411265 87.0534996,115.531029 C86.0813901,117.055502 85.0526278,118.541349 83.9594875,119.974406 L120.188914,119.974406 L120.188914,93.2896785 C118.751994,94.3982696 117.267435,95.4450577 115.737811,96.4313304" id="Fill-11"></path>
                    <path d="M110.949961,138.244013 C107.982189,138.244013 105.606947,140.856011 105.606947,143.766195 L105.606947,148.041886 C105.606947,148.041886 105.43034,150.834331 107.507396,154.63523 L112.612375,164.195066 C112.612375,164.195066 114.451396,167.402155 114.451396,169.837545 L114.451396,174.586749 C114.451396,175.894668 113.441662,176.904402 112.196452,176.904402 C110.949961,176.904402 109.940228,175.894668 109.940228,174.646898 L109.940228,167.402155 C108.872905,167.876947 107.150342,168.649924 106.794568,168.768942 C106.260906,169.065848 105.606947,169.718527 105.606947,171.084035 L105.606947,175.361006 C105.667096,178.211041 107.92204,180.527413 110.770794,180.645152 L113.441662,180.645152 C116.410714,180.645152 118.784676,178.26991 118.784676,175.361006 L118.784676,170.074302 C118.784676,170.074302 118.962563,167.283137 116.885507,163.483517 L111.779248,153.862252 C111.779248,153.862252 109.940228,150.714033 109.940228,148.279922 L109.940228,144.299856 C109.940228,142.994497 110.949961,141.984763 112.196452,141.984763 C113.441662,141.984763 114.451396,142.994497 114.451396,144.299856 L114.451396,149.111769 C115.578868,148.635696 117.241281,147.865278 117.597055,147.686111 C118.131997,147.389206 118.784676,146.736527 118.784676,145.369739 L118.784676,143.766195 C118.784676,140.91616 116.469583,138.302882 113.620829,138.244013 L110.949961,138.244013 Z M42.3264602,138.244013 C39.4175568,138.244013 37.0435947,140.617975 37.0435947,143.529438 L37.0435947,175.361006 C37.0435947,178.26991 39.4175568,180.645152 42.3264602,180.645152 L44.9371786,180.645152 C47.7872128,180.527413 50.101026,178.211041 50.101026,175.361006 L50.101026,160.21628 C50.101026,158.612736 49.3306081,157.901187 48.0239692,157.901187 L42.6822345,157.901187 L44.1066118,160.870239 C44.1066118,160.870239 44.7004223,162.235748 45.6500071,162.235748 L45.8278943,162.235748 L45.8278943,174.646898 C45.8278943,175.894668 44.8194403,176.904402 43.5729502,176.904402 C42.3264602,176.904402 41.3167264,175.894668 41.3167264,174.646898 L41.3167264,144.242267 C41.3167264,142.994497 42.3264602,141.984763 43.5729502,141.984763 C44.8194403,141.984763 45.8278943,142.994497 45.8278943,144.242267 L45.8278943,153.743234 C46.9566461,153.268442 48.6177796,152.496744 48.9146849,152.318857 C49.5084953,152.021952 50.101026,151.428141 50.101026,150.002484 L50.101026,143.529438 C50.101026,140.676844 47.7872128,138.363031 44.9371786,138.244013 L42.3264602,138.244013 Z M72.5979961,138.659937 L80.3738417,138.659937 C83.223876,138.659937 85.5965583,140.976309 85.5965583,143.885213 L85.5965583,156.713566 C85.5965583,156.713566 85.5965583,160.482471 81.3247063,160.482471 C85.5965583,160.482471 85.5965583,164.93093 85.5965583,164.93093 L85.5965583,180.230508 L81.3247063,180.230508 L81.3247063,165.026913 C81.3247063,163.007445 80.2561034,162.969052 79.1286314,162.969052 L76.8711278,162.969052 L76.8711278,180.230508 L72.5979961,180.230508 L72.5979961,138.659937 Z M76.8711278,142.638723 L76.8711278,157.700264 L79.1286314,157.700264 C80.2561034,157.700264 81.3247063,157.225472 81.3247063,155.325022 L81.3247063,144.775928 C81.3247063,143.231253 80.2561034,142.638723 79.1286314,142.638723 L76.8711278,142.638723 Z M10.5102492,138.659937 L10.5102492,162.591522 L6.11681963,140.976309 C5.88006331,139.787409 5.46414003,138.659937 3.09017795,138.659937 L1.13085938,138.659937 L1.13085938,180.230508 L5.40527089,180.230508 L5.40527089,157.010471 L9.97530787,177.558361 C10.1544748,178.387648 10.5102492,180.230508 12.8253421,180.230508 L14.7846607,180.230508 L14.7846607,138.659937 L10.5102492,138.659937 Z" id="Fill-1"></path>
                </g>
            </g>
        </g>
    </g>
</svg>